<svg width="57" height="57" viewBox="0 0 57 57" fill="none" xmlns="http://www.w3.org/2000/svg">
<g id="CalendarCheck">
<path id="Vector" d="M46.3125 7.125H40.9688V5.34375C40.9688 4.87133 40.7811 4.41827 40.447 4.08422C40.113 3.75017 39.6599 3.5625 39.1875 3.5625C38.7151 3.5625 38.262 3.75017 37.928 4.08422C37.5939 4.41827 37.4062 4.87133 37.4062 5.34375V7.125H19.5938V5.34375C19.5938 4.87133 19.4061 4.41827 19.072 4.08422C18.738 3.75017 18.2849 3.5625 17.8125 3.5625C17.3401 3.5625 16.887 3.75017 16.553 4.08422C16.2189 4.41827 16.0312 4.87133 16.0312 5.34375V7.125H10.6875C9.74267 7.125 8.83653 7.50033 8.16843 8.16843C7.50033 8.83653 7.125 9.74267 7.125 10.6875V46.3125C7.125 47.2573 7.50033 48.1635 8.16843 48.8316C8.83653 49.4997 9.74267 49.875 10.6875 49.875H46.3125C47.2573 49.875 48.1635 49.4997 48.8316 48.8316C49.4997 48.1635 49.875 47.2573 49.875 46.3125V10.6875C49.875 9.74267 49.4997 8.83653 48.8316 8.16843C48.1635 7.50033 47.2573 7.125 46.3125 7.125ZM16.0312 10.6875V12.4688C16.0312 12.9412 16.2189 13.3942 16.553 13.7283C16.887 14.0623 17.3401 14.25 17.8125 14.25C18.2849 14.25 18.738 14.0623 19.072 13.7283C19.4061 13.3942 19.5938 12.9412 19.5938 12.4688V10.6875H37.4062V12.4688C37.4062 12.9412 37.5939 13.3942 37.928 13.7283C38.262 14.0623 38.7151 14.25 39.1875 14.25C39.6599 14.25 40.113 14.0623 40.447 13.7283C40.7811 13.3942 40.9688 12.9412 40.9688 12.4688V10.6875H46.3125V17.8125H10.6875V10.6875H16.0312ZM46.3125 46.3125H10.6875V21.375H46.3125V46.3125ZM37.7759 27.2398C37.9415 27.4052 38.0729 27.6016 38.1625 27.8179C38.2521 28.0341 38.2983 28.2659 38.2983 28.5C38.2983 28.7341 38.2521 28.9659 38.1625 29.1821C38.0729 29.3984 37.9415 29.5948 37.7759 29.7602L27.0884 40.4477C26.9229 40.6133 26.7265 40.7447 26.5102 40.8344C26.294 40.924 26.0622 40.9701 25.8281 40.9701C25.594 40.9701 25.3623 40.924 25.146 40.8344C24.9298 40.7447 24.7333 40.6133 24.5679 40.4477L19.2241 35.104C18.8899 34.7698 18.7021 34.3164 18.7021 33.8438C18.7021 33.3711 18.8899 32.9177 19.2241 32.5835C19.5584 32.2493 20.0117 32.0615 20.4844 32.0615C20.9571 32.0615 21.4104 32.2493 21.7446 32.5835L25.8281 36.6693L35.2554 27.2398C35.4208 27.0742 35.6173 26.9428 35.8335 26.8531C36.0498 26.7635 36.2815 26.7173 36.5156 26.7173C36.7497 26.7173 36.9815 26.7635 37.1977 26.8531C37.414 26.9428 37.6104 27.0742 37.7759 27.2398Z" fill="#005D52"/>
</g>
</svg>
