<svg width="40" height="40" viewBox="0 0 40 40" fill="none" xmlns="http://www.w3.org/2000/svg">
<g id="mdi:facebook">
<path id="Vector" d="M20.0007 3.3999C10.834 3.3999 3.33398 10.8832 3.33398 20.0999C3.33398 28.4332 9.43398 35.3499 17.4007 36.5999V24.9332H13.1673V20.0999H17.4007V16.4166C17.4007 12.2332 19.884 9.93324 23.7007 9.93324C25.5173 9.93324 27.4173 10.2499 27.4173 10.2499V14.3666H25.3173C23.2507 14.3666 22.6007 15.6499 22.6007 16.9666V20.0999H27.234L26.484 24.9332H22.6007V36.5999C26.5281 35.9796 30.1043 33.9758 32.6839 30.95C35.2634 27.9242 36.6762 24.076 36.6673 20.0999C36.6673 10.8832 29.1673 3.3999 20.0007 3.3999Z" fill="white"/>
</g>
</svg>
