<!DOCTYPE svg PUBLIC "-//W3C//DTD SVG 1.1//EN" "http://www.w3.org/Graphics/SVG/1.1/DTD/svg11.dtd">
<!-- Uploaded to: SVG Repo, www.svgrepo.com, Transformed by: SVG Repo Mixer Tools -->
<svg width="800px" height="800px" viewBox="0 0 1024 1024" xmlns="http://www.w3.org/2000/svg" fill="#000000">
<g id="SVGRepo_bgCarrier" stroke-width="0"/>
<g id="SVGRepo_tracerCarrier" stroke-linecap="round" stroke-linejoin="round"/>
<g id="SVGRepo_iconCarrier">
<path fill="rgb(0, 102, 92)" d="M256 410.304V96a32 32 0 0 1 64 0v314.304a96 96 0 0 0 64-90.56V96a32 32 0 0 1 64 0v223.744a160 160 0 0 1-128 156.8V928a32 32 0 1 1-64 0V476.544a160 160 0 0 1-128-156.8V96a32 32 0 0 1 64 0v223.744a96 96 0 0 0 64 90.56zM672 572.48C581.184 552.128 512 446.848 512 320c0-141.44 85.952-256 192-256s192 114.56 192 256c0 126.848-69.184 232.128-160 252.48V928a32 32 0 1 1-64 0V572.48zM704 512c66.048 0 128-82.56 128-192s-61.952-192-128-192-128 82.56-128 192 61.952 192 128 192z"/>
</g>
</svg>