<svg width="40" height="40" viewBox="0 0 40 40" fill="none" xmlns="http://www.w3.org/2000/svg">
<g id="entypo-social:instagram-with-circle">
<path id="Vector" d="M25.9688 19.5C25.9688 20.9504 25.3926 22.3414 24.367 23.367C23.3414 24.3926 21.9504 24.9688 20.5 24.9688C19.0496 24.9688 17.6586 24.3926 16.633 23.367C15.6074 22.3414 15.0312 20.9504 15.0312 19.5C15.0312 19.1883 15.0641 18.8839 15.1206 18.5885H13.2083V25.8747C13.2083 26.3815 13.6185 26.7917 14.1253 26.7917H26.8766C27.1194 26.7912 27.3522 26.6944 27.5238 26.5225C27.6953 26.3506 27.7917 26.1176 27.7917 25.8747V18.5885H25.8794C25.9359 18.8839 25.9688 19.1883 25.9688 19.5ZM20.5 23.1458C20.9789 23.1457 21.4531 23.0513 21.8955 22.8679C22.3379 22.6845 22.7398 22.4158 23.0784 22.0771C23.4169 21.7384 23.6854 21.3363 23.8686 20.8938C24.0517 20.4513 24.146 19.9771 24.1458 19.4982C24.1457 19.0193 24.0513 18.5451 23.8679 18.1027C23.6845 17.6603 23.4158 17.2584 23.0771 16.9198C22.7384 16.5813 22.3363 16.3127 21.8938 16.1296C21.4513 15.9464 20.9771 15.8522 20.4982 15.8523C19.531 15.8526 18.6035 16.237 17.9198 16.9211C17.2361 17.6052 16.8521 18.5328 16.8523 19.5C16.8526 20.4672 17.237 21.3946 17.9211 22.0784C18.6052 22.7621 19.5328 23.1461 20.5 23.1458ZM24.875 15.6719H27.0607C27.2059 15.6719 27.3452 15.6143 27.448 15.5118C27.5509 15.4093 27.6089 15.2702 27.6094 15.125V12.9393C27.6094 12.7938 27.5516 12.6542 27.4487 12.5513C27.3458 12.4484 27.2062 12.3906 27.0607 12.3906H24.875C24.7295 12.3906 24.5899 12.4484 24.487 12.5513C24.3841 12.6542 24.3263 12.7938 24.3263 12.9393V15.125C24.3281 15.4258 24.5742 15.6719 24.875 15.6719ZM20.5 2C15.8587 2 11.4075 3.84374 8.12563 7.12563C4.84374 10.4075 3 14.8587 3 19.5C3 24.1413 4.84374 28.5925 8.12563 31.8744C11.4075 35.1563 15.8587 37 20.5 37C22.7981 37 25.0738 36.5473 27.197 35.6679C29.3202 34.7884 31.2493 33.4994 32.8744 31.8744C34.4994 30.2493 35.7884 28.3202 36.6679 26.197C37.5473 24.0738 38 21.7981 38 19.5C38 17.2019 37.5473 14.9262 36.6679 12.803C35.7884 10.6798 34.4994 8.75066 32.8744 7.12563C31.2493 5.50061 29.3202 4.21157 27.197 3.33211C25.0738 2.45265 22.7981 2 20.5 2ZM29.6146 26.5893C29.6146 27.7031 28.7031 28.6146 27.5893 28.6146H13.4107C12.2969 28.6146 11.3854 27.7031 11.3854 26.5893V12.4107C11.3854 11.2969 12.2969 10.3854 13.4107 10.3854H27.5893C28.7031 10.3854 29.6146 11.2969 29.6146 12.4107V26.5893Z" fill="white"/>
</g>
</svg>
