<svg width="20" height="20" viewBox="0 0 20 20" fill="none" xmlns="http://www.w3.org/2000/svg">
<path d="M15 8C15 5.24167 12.7583 3 10 3C7.24167 3 5 5.24167 5 8C5 11.75 10 17.1667 10 17.1667C10 17.1667 15 11.75 15 8ZM8.33333 8C8.33333 7.08333 9.08333 6.33333 10 6.33333C10.9167 6.33333 11.6667 7.08333 11.6667 8C11.6667 8.44203 11.4911 8.86595 11.1785 9.17851C10.8659 9.49107 10.442 9.66667 10 9.66667C9.55797 9.66667 9.13405 9.49107 8.82149 9.17851C8.50893 8.86595 8.33333 8.44203 8.33333 8Z" fill="#005D52"/>
</svg>
