<?xml version="1.0" encoding="iso-8859-1"?>
<!-- Uploaded to: SVG Repo, www.svgrepo.com, Generator: SVG Repo Mixer Tools -->
<svg fill="#000000" height="800px" width="800px" version="1.1" id="Layer_1" xmlns="http://www.w3.org/2000/svg" xmlns:xlink="http://www.w3.org/1999/xlink" 
	 viewBox="0 0 512 512" xml:space="preserve">
<g>
	<g>
		<path d="M466.112,285.113c-14.287-16.519-39.565-18.587-56.349-4.61l-68.788,57.273c-10.257,8.539-23.253,13.242-36.598,13.242
			h-81.332c-3.019,0-5.474-2.455-5.474-5.474c0-3.019,2.455-5.472,5.474-5.472h78.075c21.41,0,38.828-17.418,38.828-38.828
			c0-21.41-17.418-38.829-38.828-38.829H171.498c-30.743,0-59.353,16.562-74.663,43.223l-9.924,17.281
			c-6.063,10.558-13.584,20.191-22.355,28.632l-40.598,39.076l23.132,24.031l40.596-39.074c11.045-10.63,20.516-22.759,28.15-36.054
			l9.924-17.282c9.379-16.332,26.905-26.478,45.739-26.478h129.621c3.018,0,5.472,2.455,5.472,5.474
			c0,3.019-2.455,5.472-5.472,5.472h-78.075c-21.411,0-38.829,17.418-38.829,38.828s17.418,38.829,38.829,38.829h81.332
			c21.127,0,41.705-7.445,57.94-20.964l68.788-57.273c2.913-2.427,7.299-2.068,9.776,0.794c1.437,1.66,1.607,3.597,1.499,4.928
			c-0.175,2.13-1.19,4.114-2.786,5.444l-110.801,94.292c-15.49,13.182-35.223,20.442-55.563,20.442H169.833
			c-17.897,0-34.952,6.731-48.023,18.953l-39.193,36.648L105.398,512l39.193-36.648c6.87-6.424,15.834-9.962,25.241-9.962H273.23
			c28.254,0,55.663-10.084,77.18-28.395l110.604-94.125c8.389-7.02,13.711-17.325,14.61-28.287
			C476.516,303.702,473.139,293.236,466.112,285.113z"/>
	</g>
</g>
<g>
	<g>
		<path d="M452.131,212.071c-7.369-82.87-69.088-150.342-149.179-166.42c0.557-2.572,0.857-5.238,0.857-7.974
			C303.81,16.902,286.909,0,266.135,0c-20.776,0-37.677,16.902-37.677,37.677c0,2.736,0.3,5.402,0.857,7.974
			c-80.089,16.078-141.808,83.551-149.179,166.42H44.228v33.355h443.813v-33.355H452.131z M266.135,33.355
			c2.383,0,4.321,1.939,4.321,4.322c0,2.383-1.938,4.321-4.321,4.321c-2.384,0-4.322-1.938-4.322-4.321
			C261.814,35.294,263.752,33.355,266.135,33.355z M113.649,212.071c8.339-76.767,73.539-136.718,152.486-136.718
			s144.145,59.951,152.484,136.718H113.649z"/>
	</g>
</g>
</svg>